<svg xmlns="http://www.w3.org/2000/svg" viewBox="0 0 934.95947 149.27709"><defs><style>.a,.b,.d{fill:#519e6a;}.a,.c{opacity:0.9;}.a,.b,.c{isolation:isolate;}.b{opacity:0.34;}</style></defs><path class="a" d="M0,61.16779V88.11391H31.43885V61.16779Zm98.80074-4.491V27.48515a2.2455,2.2455,0,0,0-2.24547-2.24551H67.36414V56.67677Zm-62.871,17.03447L48.473,61.16557H43.5958l-7.666,7.66842ZM62.87542,64.343,39.10267,88.11169h4.87715L62.871,69.22022ZM35.92976,84.93654l23.76836-23.771H54.821L35.92976,80.05929Zm26.94566-9.36827L50.32776,88.11169h4.87716l7.6705-7.66617ZM35.92757,62.48369l1.318-1.31587H35.92976ZM61.55738,88.11393h1.318V86.79582ZM0,42.27407,17.03639,25.23964H12.15923l-12.157,12.155ZM23.38658,25.23964,0,48.62438v4.87724l28.26375-28.262ZM19.28186,56.67677,31.4366,44.52184V39.6446L14.40021,56.67677ZM5.809,25.23964H2.24772A2.2455,2.2455,0,0,0,.00225,27.48515v3.56137ZM8.05451,56.67677,31.43885,33.292V28.41479L3.1751,56.67677Zm23.38209,0V50.86989l-5.80679,5.80688Zm67.36583,50.3303L81.766,124.0415H86.6432l12.157-12.155ZM75.41584,124.0415l23.38659-23.38474V95.77952l-28.26375,28.262Zm4.10472-31.43713L67.36583,104.7593v4.87724L84.40222,92.60437ZM92.99339,124.0415h3.56132a2.2455,2.2455,0,0,0,2.24547-2.24551v-3.56137ZM90.74792,92.60437,67.36358,115.98911v4.87724l28.26375-28.262Zm-23.38209,0v5.80688l5.80679-5.80688ZM.00225,111.88706l12.157,12.155h4.87716L0,107.00763Zm28.2615,12.155L0,95.78008v4.87724l23.38659,23.38474ZM14.40021,92.60493,31.4366,109.6371v-4.87724L19.28186,92.60493ZM.00225,118.23518v3.56137a2.2455,2.2455,0,0,0,2.24547,2.24551H5.809ZM3.1751,92.60493l28.26375,28.262v-4.87724L8.05451,92.60493Zm22.45471,0,5.80679,5.80688V92.60493ZM67.36414,61.16779V88.11391h31.4366V61.16779ZM35.92754,25.23964V56.67677H62.8732V25.23964Zm0,67.36473V124.0415H62.8732V92.60437Z"/><path class="b" d="M150.083,0h2.47014a1.88225,1.88225,0,0,1,1.79638,1.95773V147.31936a1.88225,1.88225,0,0,1-1.79638,1.95773H150.083a1.88225,1.88225,0,0,1-1.79639-1.95773V1.95773A1.88225,1.88225,0,0,1,150.083,0Z"/><g class="c"><path class="d" d="M211.81982,97.918q-7.35791-5.61328-7.79394-16.623a2.48016,2.48016,0,0,1,.59961-1.74414,2.17462,2.17462,0,0,1,1.68945-.65332h2.17969a2.18029,2.18029,0,0,1,1.68945.65332,2.82186,2.82186,0,0,1,.709,1.63574q.65331,8.06689,6.04882,11.93555,5.39649,3.87012,13.57129,3.86914,9.37208,0,14.44239-6.1582,5.06835-6.15673,5.06836-16.2959V32.68164H209.80322a2.25147,2.25147,0,0,1-2.39843-2.39844V28.53906a2.25075,2.25075,0,0,1,2.39843-2.39795h44.58106a2.27735,2.27735,0,0,1,2.50683,2.50733v45.998q0,13.07959-6.92187,20.98243-6.92286,7.90429-19.45606,7.90234Q219.1753,103.53125,211.81982,97.918Z"/><path class="d" d="M276.18311,96.71875q-6.32228-6.81153-7.19336-18.25781l-.10938-4.35938.10938-4.36035q.8701-11.335,7.13867-18.20312,6.26806-6.86719,16.73242-6.86719,11.335,0,17.71191,7.52148,6.37647,7.52051,6.377,20.60059v1.63476a2.2603,2.2603,0,0,1-.709,1.74415,2.55014,2.55014,0,0,1-1.79785.65429H275.63818V77.916a24.09144,24.09144,0,0,0,2.34375,9.53808,17.9872,17.9872,0,0,0,5.94043,7.085,15.18083,15.18083,0,0,0,8.93848,2.66992,18.19872,18.19872,0,0,0,9.75488-2.34375,17.81469,17.81469,0,0,0,5.39551-4.74121,7.84823,7.84823,0,0,1,1.47168-1.63476,3.48882,3.48882,0,0,1,1.79883-.32715h1.74316a2.47548,2.47548,0,0,1,1.63574.54492,1.76,1.76,0,0,1,.65332,1.417q0,2.28956-2.88769,5.50489a24.03112,24.03112,0,0,1-8.01172,5.55859,27.48881,27.48881,0,0,1-11.55371,2.34375Q282.50294,103.53125,276.18311,96.71875Zm34.11718-25.99707v-.43555q0-8.39208-4.74121-13.84277-4.7417-5.44921-12.69824-5.4502-7.95849,0-12.58984,5.4502-4.63478,5.45069-4.63282,13.84277v.43555Z"/><path class="d" d="M329.17822,101.78711a2.35345,2.35345,0,0,1-.65429-1.74414V27.44922a2.25147,2.25147,0,0,1,2.39843-2.39844h1.85254a2.25148,2.25148,0,0,1,2.39844,2.39844V66.03516L359.48,47.61426a14.609,14.609,0,0,1,2.39844-1.58106,6.23712,6.23712,0,0,1,2.17969-.27246h2.07128a2.05994,2.05994,0,0,1,2.17969,2.18067,2.72292,2.72292,0,0,1-1.417,2.17968L339.31494,71.04883,369.6167,98.08105q1.41651,1.30812,1.418,2.17969a2.06,2.06,0,0,1-2.18067,2.18067h-1.74414a5.0213,5.0213,0,0,1-4.57812-1.85352l-27.3584-24.30664V100.043a2.25148,2.25148,0,0,1-2.39844,2.39844h-1.85254A2.35345,2.35345,0,0,1,329.17822,101.78711Z"/><path class="d" d="M389.49854,122.49707a2.093,2.093,0,0,1-.65333-1.52637,7.70437,7.70437,0,0,1,.65333-2.17968l8.39355-19.62012L377.07275,50.12109a7.7187,7.7187,0,0,1-.65429-2.17968,2.2362,2.2362,0,0,1,2.18066-2.18067h2.28906a2.59171,2.59171,0,0,1,2.50684,1.63574l18.31152,43.16407,18.748-43.16407a2.72765,2.72765,0,0,1,2.50684-1.63574h2.18066a2.23626,2.23626,0,0,1,2.17969,2.18067,7.68426,7.68426,0,0,1-.6543,2.17968L395.71143,121.5166a2.58909,2.58909,0,0,1-2.50684,1.63477H391.0249A2.08866,2.08866,0,0,1,389.49854,122.49707Z"/><path class="d" d="M437.894,101.78711a2.3567,2.3567,0,0,1-.65332-1.74414V27.44922a2.25005,2.25005,0,0,1,2.39746-2.39844h1.85352a2.25005,2.25005,0,0,1,2.39746,2.39844V100.043a2.25005,2.25005,0,0,1-2.39746,2.39844h-1.85352A2.35651,2.35651,0,0,1,437.894,101.78711Z"/><path class="d" d="M459.11572,101.78711a2.35345,2.35345,0,0,1-.65429-1.74414V27.44922a2.25147,2.25147,0,0,1,2.39843-2.39844h1.85254a2.25148,2.25148,0,0,1,2.39844,2.39844V100.043a2.25148,2.25148,0,0,1-2.39844,2.39844h-1.85254A2.35345,2.35345,0,0,1,459.11572,101.78711Z"/><path class="d" d="M479.42139,72.24805a2.35727,2.35727,0,0,1-.6543-1.74414V68.97852a2.25148,2.25148,0,0,1,2.39844-2.39844H513.3208a2.25138,2.25138,0,0,1,2.39746,2.39844v1.52539a2.25137,2.25137,0,0,1-2.39746,2.39843H481.16553A2.35343,2.35343,0,0,1,479.42139,72.24805Z"/><path class="d" d="M538.24854,101.78711a2.35727,2.35727,0,0,1-.6543-1.74414V32.68164h-21.582a2.25137,2.25137,0,0,1-2.39746-2.39844V28.64844a2.55092,2.55092,0,0,1,.65429-1.79883,2.25923,2.25923,0,0,1,1.74317-.7085h49.92285a2.27735,2.27735,0,0,1,2.50683,2.50733V30.2832a2.2617,2.2617,0,0,1-.709,1.74414,2.55284,2.55284,0,0,1-1.79785.6543H544.46143V100.043a2.25958,2.25958,0,0,1-.708,1.74414,2.55093,2.55093,0,0,1-1.79883.6543h-1.96191A2.355,2.355,0,0,1,538.24854,101.78711Z"/><path class="d" d="M571.689,96.71875q-6.32373-6.81153-7.19433-18.25781l-.1084-4.35938.1084-4.36035q.87158-11.335,7.13965-18.20312,6.2666-6.86719,16.73144-6.86719,11.335,0,17.71289,7.52148,6.375,7.52051,6.377,20.60059v1.63476a2.25692,2.25692,0,0,1-.709,1.74415,2.54762,2.54762,0,0,1-1.79883.65429H571.144V77.916a24.0904,24.0904,0,0,0,2.34278,9.53808,17.98937,17.98937,0,0,0,5.9414,7.085,15.17778,15.17778,0,0,0,8.9375,2.66992,18.20469,18.20469,0,0,0,9.75586-2.34375,17.79751,17.79751,0,0,0,5.39453-4.74121,7.81593,7.81593,0,0,1,1.47266-1.63476,3.48393,3.48393,0,0,1,1.79883-.32715h1.74414a2.47462,2.47462,0,0,1,1.63476.54492,1.7608,1.7608,0,0,1,.6543,1.417q0,2.28956-2.88867,5.50489a24.05135,24.05135,0,0,1-8.01172,5.55859,27.487,27.487,0,0,1-11.55469,2.34375Q578.00928,103.53125,571.689,96.71875Zm34.11622-25.99707v-.43555q0-8.39208-4.74024-13.84277-4.74316-5.44921-12.69922-5.4502-7.95849,0-12.58984,5.4502Q571.14258,61.894,571.144,70.28613v.43555Z"/><path class="d" d="M624.64111,101.78711a2.35345,2.35345,0,0,1-.65429-1.74414V48.15918a2.25137,2.25137,0,0,1,2.39746-2.39844h1.85351a2.25005,2.25005,0,0,1,2.39746,2.39844v3.81543a19.16045,19.16045,0,0,1,6.59473-5.4502,20.15816,20.15816,0,0,1,8.99316-1.85351q12.20508,0,17.43946,10.24609a19.41037,19.41037,0,0,1,7.46679-7.46679,21.85089,21.85089,0,0,1,11.06348-2.7793,19.08417,19.08417,0,0,1,14.71484,6.15918q5.666,6.1582,5.668,17.49414V100.043a2.25147,2.25147,0,0,1-2.39843,2.39844h-1.85254a2.25148,2.25148,0,0,1-2.39844-2.39844V69.41406q0-9.917-4.08691-14.16992a14.21765,14.21765,0,0,0-10.73633-4.251,13.93006,13.93006,0,0,0-10.19141,4.30567q-4.3081,4.30663-4.30566,14.11523V100.043a2.25148,2.25148,0,0,1-2.39844,2.39844H662.355a2.25148,2.25148,0,0,1-2.39844-2.39844V69.41406q0-9.81006-4.251-14.11523a14.26166,14.26166,0,0,0-10.57325-4.30567,13.93164,13.93164,0,0,0-10.1914,4.30567q-4.30665,4.30663-4.30567,14.00586V100.043a2.25005,2.25005,0,0,1-2.39746,2.39844h-1.85351A2.35267,2.35267,0,0,1,624.64111,101.78711Z"/><path class="d" d="M717.41943,122.49707a2.35976,2.35976,0,0,1-.65332-1.74414V48.15918a2.25005,2.25005,0,0,1,2.39746-2.39844h1.85352a2.25138,2.25138,0,0,1,2.39746,2.39844v5.123q6.32081-8.60889,18.3125-8.61133,11.77149,0,17.38477,7.4668,5.61327,7.46777,5.94043,18.36621.10839,1.09131.10937,3.59765,0,2.50782-.10937,3.59668-.32667,10.90137-5.94043,18.36621-5.61475,7.46778-17.38477,7.4668-11.8828,0-18.3125-8.61133v25.833a2.25138,2.25138,0,0,1-2.39746,2.39844h-1.85352A2.355,2.355,0,0,1,717.41943,122.49707ZM753.98877,91.5957q4.08839-5.61327,4.415-14.44238.10694-1.08839.1084-3.05176,0-10.13819-3.92383-16.623-3.92432-6.48341-13.51563-6.48536-8.61181,0-12.9707,5.72266a23.26258,23.26258,0,0,0-4.6875,13.46094l-.10937,4.251.10937,4.251a21.91071,21.91071,0,0,0,2.07129,8.88379,17.1468,17.1468,0,0,0,5.88574,6.92188,16.58964,16.58964,0,0,0,9.70117,2.7246Q749.90137,97.209,753.98877,91.5957Z"/><path class="d" d="M778.05615,101.78711a2.3567,2.3567,0,0,1-.65332-1.74414V27.44922a2.25005,2.25005,0,0,1,2.39746-2.39844h1.85352a2.25138,2.25138,0,0,1,2.39746,2.39844V100.043a2.25138,2.25138,0,0,1-2.39746,2.39844h-1.85352A2.355,2.355,0,0,1,778.05615,101.78711Z"/><path class="d" d="M804.52,101.35156a18.70326,18.70326,0,0,1-7.13965-5.88672,13.65711,13.65711,0,0,1-2.66992-8.1748,14.30706,14.30706,0,0,1,5.83105-11.77149q5.83008-4.5791,15.751-5.88671l17.22168-2.39746V63.419q0-5.99268-3.65137-9.21-3.65331-3.21385-11.17285-3.21582a17.14677,17.14677,0,0,0-9.10156,2.17969,9.81651,9.81651,0,0,0-4.52344,5.23242,3.91625,3.91625,0,0,1-1.03515,1.79883,2.42357,2.42357,0,0,1-1.58008.49024h-1.52637a2.421,2.421,0,0,1-2.39844-2.39844,10.48652,10.48652,0,0,1,2.18067-5.61328,18.03024,18.03024,0,0,1,6.75781-5.61328,23.97947,23.97947,0,0,1,11.22656-2.39844q11.66309,0,16.56836,5.55957a19.71109,19.71109,0,0,1,4.90527,13.51562V100.043a2.25147,2.25147,0,0,1-2.39843,2.39844H835.9126a2.25148,2.25148,0,0,1-2.39844-2.39844v-5.123a19.175,19.175,0,0,1-7.03027,6.10449q-4.63477,2.50635-12.2627,2.50684A21.84478,21.84478,0,0,1,804.52,101.35156Zm23.87109-9.374q5.12256-5.23242,5.123-15.042V73.22949l-14.06055,1.96192q-8.93994,1.1997-13.5166,4.1416-4.57764,2.94287-4.57812,7.41211a8.70029,8.70029,0,0,0,4.19726,7.73926,18.909,18.909,0,0,0,22.835-2.50684Z"/><path class="d" d="M861.88623,97.59082q-3.3794-4.84863-3.37891-13.35254V52.083h-8.502a2.25138,2.25138,0,0,1-2.39844-2.39746V48.15918a2.25148,2.25148,0,0,1,2.39844-2.39844h8.502V27.44922a2.25139,2.25139,0,0,1,2.39747-2.39844h1.85351a2.25005,2.25005,0,0,1,2.39746,2.39844V45.76074h13.5166a2.25005,2.25005,0,0,1,2.39746,2.39844v1.52637a2.25,2.25,0,0,1-2.39746,2.39746h-13.5166V83.80176q0,6.10694,2.0166,9.21094,2.01563,3.10692,6.7041,3.10644h5.88575a2.25147,2.25147,0,0,1,2.39843,2.39844V100.043a2.25147,2.25147,0,0,1-2.39843,2.39844h-6.43067Q865.26319,102.44141,861.88623,97.59082Z"/><path class="d" d="M894.19385,96.71875q-6.32373-6.81153-7.19434-18.25781l-.10937-4.35938.10937-4.36035q.87159-11.335,7.13965-18.20312,6.2666-6.86719,16.73145-6.86719,11.335,0,17.71191,7.52148,6.37647,7.52051,6.37695,20.60059v1.63476a2.25694,2.25694,0,0,1-.709,1.74415,2.54687,2.54687,0,0,1-1.79785.65429H893.648V77.916a24.10808,24.10808,0,0,0,2.34375,9.53808,17.99512,17.99512,0,0,0,5.94043,7.085,15.18081,15.18081,0,0,0,8.93848,2.66992,18.19877,18.19877,0,0,0,9.75488-2.34375A17.803,17.803,0,0,0,926.021,90.124a7.84794,7.84794,0,0,1,1.47168-1.63476,3.48875,3.48875,0,0,1,1.79882-.32715h1.74414a2.47285,2.47285,0,0,1,1.63477.54492,1.7608,1.7608,0,0,1,.6543,1.417q0,2.28956-2.88867,5.50489a24.03112,24.03112,0,0,1-8.01172,5.55859,27.48566,27.48566,0,0,1-11.55371,2.34375Q900.51416,103.53125,894.19385,96.71875Zm34.11621-25.99707v-.43555q0-8.39208-4.74121-13.84277-4.74171-5.44921-12.69824-5.4502-7.95851,0-12.58985,5.4502Q893.64745,61.894,893.648,70.28613v.43555Z"/></g></svg>