<svg xmlns="http://www.w3.org/2000/svg" viewBox="0 0 198.15169 198.14832"><defs><style>.a{fill:#519e6a;opacity:0.9;isolation:isolate;}</style></defs><path class="a" d="M0,72.05393v54.04045H63.0517V72.05393Zm198.14831-9.00674V4.50337A4.50339,4.50339,0,0,0,193.64494,0H135.10112V63.04719ZM72.05838,97.20982,97.2142,72.04948H87.4329L72.05838,87.4285Zm54.04045-18.78806L78.42176,126.08993h9.7813L126.0899,88.20307ZM72.05838,119.72217l47.66828-47.67269h-9.78131l-37.887,37.89136Zm54.04045-18.78807-25.16475,25.15583h9.7813l15.38345-15.3745ZM72.054,74.693l2.64337-2.639h-2.639Zm51.40148,51.40147h2.64337V123.451ZM0,34.16256,34.16707,0H24.38575L.0045,24.37686ZM46.90261,0,0,46.89811v9.78131L56.68393,0ZM38.67044,63.04719,63.04719,38.67047V28.88916l-34.16707,34.158ZM11.65022,0H4.50787A4.50339,4.50339,0,0,0,.0045,4.50337v7.14234Zm4.50337,63.04719L63.0517,16.14908V6.36777L6.36777,63.04719Zm46.8936,0V51.40148L51.40147,63.04719Zm135.1045,100.93743-34.16707,34.16257h9.78132l24.38125-24.37686Zm-46.9026,34.16257,46.9026-46.89811v-9.78131l-56.68392,56.67942ZM159.48125,135.1,135.1045,159.47672V169.258L169.27158,135.1Zm27.02022,63.04719h7.14235a4.5034,4.5034,0,0,0,4.50337-4.50337v-7.14234ZM181.9981,135.1,135.1,181.99811v9.78131L191.78393,135.1Zm-46.8936,0v11.64571L146.75022,135.1Zm-135.1,38.67146,24.38124,24.37686h9.78133L0,163.98575Zm56.67942,24.37686L0,141.4689v9.78131l46.90261,46.89811ZM28.88012,135.10113l34.16707,34.158v-9.7813L38.67045,135.10113ZM.00451,186.50261V193.645a4.50339,4.50339,0,0,0,4.50337,4.50337h7.14234Zm6.36326-51.40148L63.0517,191.78054v-9.7813L16.15359,135.10113Zm45.0337,0,11.64572,11.64571V135.10113Zm83.69965-63.0472v54.04045h63.04719V72.05393ZM72.05393,0V63.04719h54.04045V0Zm0,135.1v63.04719h54.04045V135.1Z"/></svg>